<svg width="32" height="28" xmlns="http://www.w3.org/2000/svg" version="1.1">
 <title>animation</title>

 <g>
  <title>background</title>
  <rect fill="none" id="canvas_background" height="593" width="1164" y="-1" x="-1"/>
 </g>
 <g>
  <title>Layer 1</title>
  <g fill-rule="evenodd" fill="none" id="页面-1">
   <g fill-rule="nonzero" fill="#DDDDDD" id="animation">
    <path fill="#000000" id="形状" d="m11.96137,3c0.32388,0 0.65571,0.24649 0.99151,0.72233l0.01391,0.03215l0.01192,0.02358l0.01391,0.02143c0.70538,1.16602 1.92739,3.24513 2.60297,4.33827c0.3358,0.57658 0.83454,0.9924 1.44256,1.15745l3.94022,1.19816l0.04967,0.01501l0.01192,0c0.52656,0.23149 0.83653,0.51013 0.92793,0.83164c0.09339,0.36224 -0.01391,0.79307 -0.36163,1.32249l-2.88711,4.22253c-0.35469,0.51691 -0.52916,1.15212 -0.49278,1.79403l0.22453,4.75409l0,0.01286c-0.02782,0.67089 -0.15896,1.11458 -0.41131,1.33321c-0.13618,0.11325 -0.30508,0.17095 -0.47688,0.1629c-0.17883,0 -0.38746,-0.04287 -0.63584,-0.13289l-4.38331,-1.7919c-0.26561,-0.11317 -0.54898,-0.16994 -0.83454,-0.16718c-0.33653,0.00073 -0.66978,0.07132 -0.98158,0.20791l-3.79119,1.69329c-0.41926,0.15004 -0.73122,0.24864 -0.97959,0.24864c-0.17486,0 -0.29209,-0.0493 -0.37952,-0.16504c-0.15896,-0.22292 -0.22652,-0.68161 -0.17088,-1.38679l0.12915,-5.41855c0.03358,-0.64909 -0.15762,-1.28848 -0.53649,-1.79404c-0.38746,-0.49727 -0.83454,-1.16387 -1.12265,-1.54969c-0.48086,-0.66017 -0.96568,-1.29248 -1.42269,-1.95265l0,-0.015l-0.05763,-0.10074c-0.35368,-0.63231 -0.47091,-1.09743 -0.34971,-1.47038c0.10929,-0.28936 0.40932,-0.55515 0.91005,-0.72876l4.4926,-1.5154c0.57424,-0.21005 1.06106,-0.62159 1.39885,-1.19602l2.18768,-3.95675c0.306,-0.50155 0.60405,-0.75019 0.92595,-0.75019zm0.0373,-2c-0.69237,0 -1.63928,0.32283 -2.4355,1.65533l-2.26647,4.01917c-0.11843,0.17037 -0.2813,0.29996 -0.46837,0.37267l-4.61848,1.52316c-1.07927,0.364 -1.80015,1.03567 -2.06895,1.95217c-0.29527,0.8775 -0.12625,1.91967 0.50502,3.04417c0.02796,0.08141 0.07327,0.15483 0.13237,0.2145c0.87156,1.222 1.77571,2.4115 2.64727,3.6335c0.07942,0.234 0.13848,0.4485 0.21586,0.68033l-0.12829,5.33433c-0.07331,1.20034 0.12625,2.12984 0.62109,2.74734c0.44393,0.52433 1.04262,0.82333 1.74313,0.82333c0.45207,0 0.96931,-0.12133 1.54356,-0.429l3.90168,-1.703c0.09246,-0.03366 0.18942,-0.05121 0.28713,-0.052c0.09775,0 0.19346,0.01733 0.28509,0.05417l4.5411,1.82l0.0672,0.02383l0.04073,0c0.41135,0.143 0.79418,0.21667 1.14851,0.21667c0.34618,0 0.97746,-0.0845 1.54357,-0.533c0.59462,-0.4745 1.0976,-1.3325 1.15054,-2.834l0,-0.04117l-0.26472,-4.87933c0,-0.17334 0.04072,-0.37267 0.15883,-0.55034l2.95884,-4.33983c0.69848,-1.03567 0.91637,-2.06483 0.65164,-3.01167c-0.26473,-0.9815 -0.98153,-1.69 -2.11986,-2.12766l-0.04072,-0.01734c-0.03574,-0.01722 -0.07337,-0.02959 -0.112,-0.03683l-4.0035,-1.16133c-0.18479,-0.07502 -0.34481,-0.2061 -0.46022,-0.377c-0.87564,-1.44084 -1.76146,-2.9315 -2.67782,-4.42l-0.02037,-0.04767l-0.01832,-0.03683l-0.02037,-0.02817c-0.66793,-0.962 -1.54153,-1.4885 -2.42124,-1.4885l0.00204,0z"/>
    <path fill="#000000" id="形状" d="m17.67648,0.66667l0,2.66666l14.28533,0l0,-2.66666l-14.28533,0zm5.33333,24l0,2.66666l8.57067,0l0,-2.66666l-8.57067,0zm2.66667,-13.33334l0,2.66667l5.71467,0l0,-2.66667l-5.71467,0z"/>
   </g>
  </g>
 </g>
</svg>