<svg width="1424" height="1453" xmlns="http://www.w3.org/2000/svg" xmlns:xlink="http://www.w3.org/1999/xlink" version="1.1">
 <title>disableAnimation</title>
 <defs>
  <path id="path-1" d="m35.999995,1350l1270.000005,-1350"/>
  <filter id="filter-2" filterUnits="objectBoundingBox" height="123.8%" width="125.2%" y="-11.9%" x="-12.6%"/>
 </defs>
 <g>
  <title>background</title>
  <rect fill="none" id="canvas_background" height="1026" width="1026" y="-1" x="-1"/>
 </g>
 <g>
  <title>Layer 1</title>
  <g fill-rule="evenodd" fill="none" id="页面-1">
   <g id="disableAnimation">
    <g id="Layer-1">
     <path fill-rule="nonzero" fill="#000000" id="svg_1" d="m605.562487,219c16.24262,0 32.883832,11.461905 49.72434,33.588367l0.697536,1.495031l0.597887,1.096356l0.697537,0.996688c35.375032,54.219797 96.658538,150.89848 130.53885,201.72954c16.840508,26.810893 41.852151,46.146629 72.344432,53.821123l197.601941,55.714828l2.4912,0.697681l0.59789,0c26.40671,10.764224 41.9518,23.721161 46.5356,38.671473c4.68346,16.844018 -0.69753,36.877436 -18.13593,61.495615l-144.788512,196.347429c-17.787361,24.036644 -26.537324,53.573925 -24.712698,83.42274l11.260221,221.065279l0,0.59801c-1.395072,31.19632 -7.971838,51.82775 -20.627131,61.99396c-6.829605,5.26624 -15.300112,7.94912 -23.915515,7.57482c-8.968318,0 -19.431356,-1.99337 -31.887352,-6.17946l-219.82344,-83.32307c-13.320081,-5.2627 -27.531095,-7.90244 -41.85215,-7.77416c-16.87685,0.0341 -33.589447,3.31641 -49.226101,9.66787l-190.128341,78.73831c-21.025723,6.97681 -36.670456,11.56157 -49.126454,11.56157c-8.769022,0 -14.648253,-2.29238 -19.032763,-7.67449c-7.971839,-10.36555 -11.359869,-31.69466 -8.569726,-64.48568l6.477118,-251.962589c1.684022,-30.182434 -7.90481,-59.914008 -26.904954,-83.42274c-19.431355,-23.123148 -41.85215,-54.120129 -56.301108,-72.060503c-24.114811,-30.697974 -48.428917,-60.100253 -71.347951,-90.798227l0,-0.697681l-2.889792,-4.684431c-17.737339,-29.40228 -23.616571,-51.030397 -17.538044,-68.372759c5.480638,-13.45528 20.527484,-25.814204 45.638774,-33.887374l225.304078,-70.465802c28.798265,-9.767537 53.21202,-28.903936 70.152176,-55.61516l109.712423,-183.988504c15.345788,-23.322486 30.292985,-34.88406 46.435959,-34.88406l0,0zm-0.627648,-88c-33.868176,0 -80.187888,14.850334 -119.136292,76.145334l-110.868472,184.881666c-5.792891,7.83719 -13.759873,13.79836 -22.910826,17.142666l-225.92066,70.065668c-52.794511,16.744 -88.057259,47.640666 -101.206079,89.799666c-14.443781,40.365 -6.175962,88.304666 24.703845,140.031666c1.367652,3.745202 3.583852,7.122488 6.474799,9.867c42.634058,56.212 86.861912,110.929 129.495969,167.141c3.884879,10.764 6.773636,20.631 10.558903,31.295334l-6.275574,245.37933c-3.586042,55.21534 6.175962,97.97234 30.381746,126.37734c21.715478,24.11933 51.001489,37.87333 85.268116,37.87333c22.113927,0 47.415447,-5.58133 75.50611,-19.734l190.857137,-78.338c4.52268,-1.54814 9.265429,-2.35586 14.045332,-2.392c4.781389,0 9.463167,0.79733 13.94572,2.49167l222.135393,83.72l3.287205,1.09633l1.992246,0c20.121681,6.578 38.848791,9.96667 56.181328,9.96667c16.934089,0 47.813897,-3.887 75.506111,-24.518c29.086786,-21.827 53.691021,-61.295 56.280941,-130.364l0,-1.89367l-12.949598,-224.449334c0,-7.973333 1.992246,-17.142666 7.769758,-25.315332l144.736653,-199.632334c34.16701,-47.640666 44.82552,-94.982334 31.87593,-138.536666c-12.9496,-45.149 -48.01312,-77.74 -103.69639,-97.872668l-1.99225,-0.797332c-1.74809,-0.792122 -3.58873,-1.361358 -5.47867,-1.694334l-195.837752,-53.421334c-9.039268,-3.450639 -16.867099,-9.480666 -22.512376,-17.342c-42.833281,-66.278333 -86.164625,-134.849 -130.990154,-203.32l-0.996122,-2.192666l-0.896511,-1.694334l-0.996122,-1.295666c-32.67283,-44.252 -75.4065,-68.471 -118.439007,-68.471l0.099613,0l0,0z"/>
     <path fill-rule="nonzero" fill="#000000" id="svg_2" d="m966.64736,302.333333l0,85.333334l457.13067,0l0,-85.333334l-457.13067,0zm176.66667,767.999997l0,85.33334l274.26133,0l0,-85.33334l-274.26133,0zm89.33333,-426.666663l0,85.333333l182.86933,0l0,-85.333333l-182.86933,0z"/>
     <use id="svg_4" x="18" y="53" xlink:href="#path-1" filter="url(#filter-2)" fill="#000000"/>
     <use fill="none" id="svg_5" x="18" y="48.999996" xlink:href="#path-1" stroke-width="100" stroke="#000000"/>
    </g>
   </g>
  </g>
 </g>
</svg>