<svg width="40" height="39" xmlns="http://www.w3.org/2000/svg" version="1.1">
 <title>hide</title>

 <g>
  <title>background</title>
  <rect fill="none" id="canvas_background" height="593" width="1164" y="-1" x="-1"/>
 </g>
 <g>
  <title>Layer 1</title>
  <g fill-rule="evenodd" fill="none" id="页面-1">
   <g fill-rule="nonzero" fill="#DDDDDD" id="hide">
    <path fill="#000000" id="形状" d="m37.87811,0.459147c0.245112,0.287135 0.378714,0.672115 0.371665,1.070141c-0.007622,0.398025 -0.155294,0.776443 -0.410775,1.0519l-33.332301,36.00069c-0.3436,0.371206 -0.837122,0.507983 -1.294662,0.358808c-0.45754,-0.149176 -0.809587,-0.56164 -0.923527,-1.082021c-0.113941,-0.520382 0.027535,-1.069622 0.371135,-1.440828l33.332301,-36.00069c0.531277,-0.572943 1.374697,-0.553249 1.884387,0.044l0.001777,-0.002zm-17.876527,6.924799c1.382312,-0.015574 2.760779,0.167774 4.102369,0.545651c0.636593,0.17893 1.024701,0.909006 0.866865,1.630672c-0.157837,0.721666 -0.801849,1.161641 -1.438442,0.982711c-1.151508,-0.324516 -2.334805,-0.481338 -3.521292,-0.466675l-0.033249,0c-5.878848,-0.111284 -12.175691,4.612909 -16.232143,9.670954c-0.493329,0.622806 -0.493329,1.56698 0,2.189786c1.214402,1.505926 2.54122,2.893389 3.96462,4.146233c0.518106,0.455998 0.612032,1.301794 0.209789,1.889139c-0.402243,0.587345 -1.148333,0.693823 -1.666439,0.237825c-1.530635,-1.34787 -2.957574,-2.840608 -4.26545,-4.462137l-0.006333,-0.007179c-1.309171,-1.647573 -1.309171,-4.149975 0,-5.797547l0.00475,-0.005385c4.240117,-5.284204 11.135453,-10.674307 18.014955,-10.554048zm11.308034,5.72216c0.185588,-0.288506 0.464682,-0.481606 0.775872,-0.536811c0.311191,-0.055206 0.628979,0.032006 0.883442,0.242447c1.828729,1.514901 3.518126,3.230831 5.044441,5.129842l0.00475,0.005385c1.309171,1.647572 1.309171,4.149974 0,5.797547l-0.003167,0.003589c-4.146701,5.174715 -11.026204,10.685077 -18.021288,10.559434c-1.746999,0.013137 -3.485332,-0.279281 -5.15369,-0.86694c-0.414775,-0.133576 -0.733086,-0.511537 -0.831586,-0.987422c-0.0985,-0.475885 0.038291,-0.974905 0.357367,-1.303685c0.319076,-0.32878 0.77029,-0.435651 1.178794,-0.279199c1.440817,0.506164 2.938633,0.757451 4.445948,0.744886l0.0285,0c5.983346,0.114874 12.262772,-4.715218 16.236893,-9.674544c0.493329,-0.622806 0.493329,-1.56698 0,-2.189786c-1.417474,-1.761884 -2.987569,-3.357798 -4.686612,-4.763681c-0.52944,-0.438673 -0.644981,-1.280819 -0.25808,-1.881062l-0.001584,0zm-11.312784,2.354917c-2.623552,0 -4.749944,2.410559 -4.748361,5.384719c0,0.743474 -0.531655,1.34618 -1.187486,1.34618c-0.65583,0 -1.187486,-0.602706 -1.187486,-1.34618c-0.00084,-2.141844 0.749114,-4.19629 2.084793,-5.711139c1.335678,-1.514849 3.147603,-2.365939 5.036957,-2.365939l0.003167,0c0.65583,0 1.187486,0.602705 1.187486,1.34618c0,0.743474 -0.531656,1.346179 -1.187486,1.346179l-0.001584,0l0,0zm5.939014,4.036744c0.65583,0 1.187486,0.602706 1.187486,1.34618c0.000875,4.460146 -3.187385,8.076891 -7.12175,8.078873l-0.003166,0c-0.655831,0 -1.187486,-0.602705 -1.187486,-1.34618c0,-0.743474 0.531655,-1.346179 1.187486,-1.346179c1.259763,0 2.46793,-0.567317 3.358718,-1.577148c0.890787,-1.00983 1.391226,-2.379455 1.391226,-3.807571c-0.00042,-0.35734 0.124504,-0.700207 0.347246,-0.953053c0.222743,-0.252846 0.525025,-0.394922 0.84024,-0.394922z"/>
   </g>
  </g>
 </g>
</svg>