<svg width="1024" height="1024" xmlns="http://www.w3.org/2000/svg" p-id="2619" version="1.1" class="icon" t="1590569580239">
 <defs>
  <style type="text/css"/>
 </defs>
 <g>
  <title>background</title>
  <rect fill="none" id="canvas_background" height="579" width="1022" y="-1" x="-1"/>
 </g>
 <g>
  <title>Layer 1</title>
  <path id="svg_1" fill="#000000" p-id="2620" d="m998.233935,246.606933a264.666532,264.666532 0 0 0 -55.112913,-107.786742a333.220353,333.220353 0 0 0 -93.411717,-76.182445c-67.775391,-37.831746 -151.534563,-58.434219 -242.870465,-59.88729l-10.379079,0a701.054936,701.054936 0 0 0 -165.753902,20.18731c-124.185688,30.203122 -233.89256,91.699169 -308.933307,172.604095a376.241638,376.241638 0 0 0 -82.669369,133.786337a269.856071,269.856071 0 0 0 -8.355159,154.077438a263.21346,263.21346 0 0 0 25.324954,64.246503c-25.947699,28.179201 -39.336712,62.274478 -37.520373,97.200081a127.610785,127.610785 0 0 0 25.273059,69.539834a164.19704,164.19704 0 0 0 50.18285,44.007297c35.496452,20.758159 81.320089,32.123252 129.063856,32.123252c5.18954,0 10.37908,0 15.568619,-0.363268c9.80823,-0.518954 19.616461,-1.504967 29.061423,-2.906142c4.255423,2.283398 8.666532,4.566795 13.337118,6.953983c22.574498,11.313197 36.793837,20.758159 42.190959,28.023515c1.660653,2.179607 3.373201,4.411109 2.646665,16.762214c-1.816339,31.137239 -25.480641,83.34401 -60.510035,113.33955l-7.784309,6.642611l52.466247,61.340361l7.78431,-6.694507c47.951348,-40.997365 85.212244,-112.405433 88.585445,-169.801743c1.089803,-19.460774 0,-44.941415 -18.422866,-69.799311a122.006081,122.006081 0 0 0 -21.017637,-21.484695q3.373201,-2.023921 6.538821,-4.203527a184.747618,184.747618 0 0 0 26.72613,-21.796067c11.884046,0.622745 22.678289,0.882222 32.849787,0.882221a699.238597,699.238597 0 0 0 165.286844,-20.394891c124.185688,-30.410703 233.89256,-91.699169 308.933306,-172.604095a376.241638,376.241638 0 0 0 82.876951,-133.578755a270.945875,270.945875 0 0 0 8.043787,-154.233124zm-899.191567,394.405027a43.540239,43.540239 0 0 1 3.476991,-19.356983a298.29475,298.29475 0 0 0 33.16116,56.617879c4.722481,6.279343 9.652544,12.403 14.893979,18.422867c-30.825867,-12.662477 -50.442327,-33.057369 -51.53213,-55.683763zm179.558078,76.753294l-49.871478,-38.402594l78.465842,24.754105l-28.594364,13.648489zm81.735252,-75.819177c-74.262315,-10.119603 -138.7164,-36.326779 -184.176768,-74.054733a215.781066,215.781066 0 0 1 50.649908,-8.510845c3.840259,0 7.524833,-0.363268 11.313197,-0.363268c67.464018,0 122.006081,30.306913 123.926212,68.865193a46.083114,46.083114 0 0 1 -1.712549,14.063653zm487.816745,-162.328806c-64.454085,69.384148 -159.941618,122.317454 -268.97385,149.043584a623.782688,623.782688 0 0 1 -137.47091,18.059599a123.614839,123.614839 0 0 0 1.037908,-22.678289a128.441111,128.441111 0 0 0 -25.273059,-69.539834a164.404622,164.404622 0 0 0 -50.234746,-44.007298c-35.496452,-20.758159 -81.320089,-32.123252 -129.063855,-32.123251c-5.18954,0 -10.37908,0 -15.56862,0.363268a284.386783,284.386783 0 0 0 -99.846746,22.88587a179.402392,179.402392 0 0 1 -13.64849,-37.157105c-35.600243,-145.307115 117.2836,-308.10298 340.848976,-362.90452a607.74701,607.74701 0 0 1 146.396919,-18.215285c166.79181,0 296.789783,73.328198 323.412122,182.46422c17.125481,69.591729 -8.407055,145.410906 -71.771335,213.809041l0.155686,0z"/>
 </g>
</svg>