<svg width="1000" height="1000" xmlns="http://www.w3.org/2000/svg" version="1.1">
 <title>searchNode</title>

 <g>
  <title>background</title>
  <rect fill="none" id="canvas_background" height="593" width="1164" y="-1" x="-1"/>
 </g>
 <g>
  <title>Layer 1</title>
  <g fill-rule="evenodd" fill="none" id="页面-1">
   <g stroke="#000000" fill-rule="nonzero" fill="#DDDDDD" id="searchNode">
    <g id="Layer-1">
     <path fill="#000000" id="svg_1" d="m794.325472,999.17599l-588.650916,0c-113.020976,0 -204.850519,-91.829543 -204.850519,-204.850519l0,-588.650916c0,-113.020976 91.829543,-204.850519 204.850519,-204.850519l588.650916,0c113.020976,0 204.850519,91.829543 204.850519,204.850519l0,588.650916c0,113.020976 -91.829543,204.850519 -204.850519,204.850519zm-588.650916,-932.423051c-76.524619,0 -138.921616,62.396997 -138.921616,138.921616l0,588.650916c0,76.524619 62.396997,138.921616 138.921616,138.921616l588.650916,0c76.524619,0 138.921616,-62.396997 138.921616,-138.921616l0,-588.650916c0,-76.524619 -62.396997,-138.921616 -138.921616,-138.921616l-588.650916,0z"/>
     <path fill="#000000" id="svg_2" d="m758.034062,757.571878c-12.951059,12.949866 -33.963868,12.949866 -46.914927,0l-46.913734,-46.914927c-9.285867,-8.064137 -13.195644,-20.769418 -10.263013,-32.743331c2.93263,-11.97272 12.217305,-21.257394 24.434609,-24.434609c11.97272,-2.931437 24.679194,0.978339 32.742138,10.263013l46.914927,46.914927c12.949866,13.19445 12.949866,33.963868 0,46.913734m-454.484927,-110.200327c-69.638637,-69.394052 -90.408055,-173.973703 -52.778995,-264.626342c37.630253,-90.897224 126.082823,-150.028263 224.309237,-150.028263c98.227607,0 186.924762,59.131039 224.31043,150.028263c37.62906,90.897224 16.615057,195.23229 -52.778995,264.626342c-94.805807,94.807 -248.25587,94.807 -343.06287,0m304.456665,-302.989156c-62.308254,-63.040815 -160.292469,-73.303828 -234.328858,-24.678001c-74.036389,48.625827 -103.113336,142.942465 -69.638637,225.041798c33.475892,82.100526 120.218755,129.015453 207.20501,112.155812c86.988641,-16.860835 150.029456,-92.608124 150.276366,-181.305279c0.24226,-48.869219 -18.817451,-96.272122 -53.513881,-131.21433"/>
    </g>
   </g>
  </g>
 </g>
</svg>