<svg width="1024" height="1024" xmlns="http://www.w3.org/2000/svg" p-id="11064" version="1.1" class="icon" t="1590598797394">
 <defs>
  <style type="text/css"/>
 </defs>
 <g>
  <title>background</title>
  <rect fill="none" id="canvas_background" height="593" width="1164" y="-1" x="-1"/>
 </g>
 <g>
  <title>Layer 1</title>
  <path id="svg_1" p-id="11065" fill="#000000" d="m928,0c-54.4,0 -96,41.6 -96,96c0,28.8 12.8,54.4 32,70.4l-185.6,441.6l-6.4,0c-19.2,0 -38.4,6.4 -54.4,19.2l-172.8,-121.6c3.2,-9.6 3.2,-16 3.2,-25.6c0,-54.4 -41.6,-96 -96,-96s-96,41.6 -96,96c0,22.4 9.6,44.8 22.4,60.8l-166.4,291.2l-16,0c-54.4,0 -96,41.6 -96,96s41.6,96 96,96s96,-41.6 96,-96c0,-22.4 -9.6,-44.8 -22.4,-60.8l166.4,-291.2c6.4,0 9.6,3.2 16,3.2c19.2,0 38.4,-6.4 54.4,-19.2l172.8,121.6c-3.2,6.4 -3.2,12.8 -3.2,22.4c0,54.4 41.6,96 96,96s96,-41.6 96,-96c0,-28.8 -12.8,-54.4 -32,-70.4l185.6,-441.6l6.4,0c54.4,0 96,-41.6 96,-96s-41.6,-96 -96,-96zm-800,960l-64,0l0,-64l64,0l0,64zm256,-448l-64,0l0,-64l64,0l0,64zm320,224l-64,0l0,-64l64,0l0,64zm256,-608l-64,0l0,-64l64,0l0,64z"/>
 </g>
</svg>