<svg viewBox="0 0 57 57" version="1.1" xmlns="http://www.w3.org/2000/svg" fill="black"><rect x="2" y="2" width="3" height="3"/><rect x="0.5" y="0.5" width="6" height="6" fill="transparent" stroke="black"/><rect x="52" y="2" width="3" height="3"/><rect x="50.5" y="0.5" width="6" height="6" fill="transparent" stroke="black"/><rect x="2" y="52" width="3" height="3"/><rect x="0.5" y="50.5" width="6" height="6" fill="transparent" stroke="black"/><rect x="8" y="0" width="1" height="1"/><rect x="10" y="0" width="1" height="1"/><rect x="13" y="0" width="4" height="1"/><rect x="18" y="0" width="8" height="1"/><rect x="27" y="0" width="1" height="1"/><rect x="29" y="0" width="3" height="1"/><rect x="35" y="0" width="1" height="1"/><rect x="41" y="0" width="7" height="1"/><rect x="8" y="1" width="2" height="1"/><rect x="11" y="1" width="2" height="1"/><rect x="15" y="1" width="2" height="1"/><rect x="18" y="1" width="5" height="1"/><rect x="24" y="1" width="2" height="1"/><rect x="27" y="1" width="1" height="1"/><rect x="30" y="1" width="1" height="1"/><rect x="32" y="1" width="1" height="1"/><rect x="34" y="1" width="1" height="1"/><rect x="36" y="1" width="2" height="1"/><rect x="39" y="1" width="4" height="1"/><rect x="44" y="1" width="2" height="1"/><rect x="47" y="1" width="1" height="1"/><rect x="9" y="2" width="5" height="1"/><rect x="20" y="2" width="2" height="1"/><rect x="25" y="2" width="1" height="1"/><rect x="30" y="2" width="3" height="1"/><rect x="34" y="2" width="1" height="1"/><rect x="36" y="2" width="1" height="1"/><rect x="41" y="2" width="1" height="1"/><rect x="43" y="2" width="2" height="1"/><rect x="46" y="2" width="2" height="1"/><rect x="8" y="3" width="1" height="1"/><rect x="10" y="3" width="2" height="1"/><rect x="15" y="3" width="2" height="1"/><rect x="18" y="3" width="1" height="1"/><rect x="20" y="3" width="1" height="1"/><rect x="23" y="3" width="1" height="1"/><rect x="25" y="3" width="1" height="1"/><rect x="29" y="3" width="3" height="1"/><rect x="33" y="3" width="2" height="1"/><rect x="36" y="3" width="1" height="1"/><rect x="38" y="3" width="2" height="1"/><rect x="41" y="3" width="1" height="1"/><rect x="43" y="3" width="1" height="1"/><rect x="45" y="3" width="1" height="1"/><rect x="47" y="3" width="1" height="1"/><rect x="9" y="4" width="1" height="1"/><rect x="12" y="4" width="1" height="1"/><rect x="15" y="4" width="3" height="1"/><rect x="21" y="4" width="1" height="1"/><rect x="26" y="4" width="5" height="1"/><rect x="32" y="4" width="2" height="1"/><rect x="37" y="4" width="2" height="1"/><rect x="40" y="4" width="1" height="1"/><rect x="45" y="4" width="1" height="1"/><rect x="47" y="4" width="1" height="1"/><rect x="9" y="5" width="4" height="1"/><rect x="15" y="5" width="1" height="1"/><rect x="19" y="5" width="3" height="1"/><rect x="23" y="5" width="4" height="1"/><rect x="30" y="5" width="1" height="1"/><rect x="33" y="5" width="1" height="1"/><rect x="37" y="5" width="2" height="1"/><rect x="40" y="5" width="1" height="1"/><rect x="43" y="5" width="1" height="1"/><rect x="46" y="5" width="1" height="1"/><rect x="8" y="6" width="1" height="1"/><rect x="10" y="6" width="1" height="1"/><rect x="12" y="6" width="1" height="1"/><rect x="14" y="6" width="1" height="1"/><rect x="16" y="6" width="1" height="1"/><rect x="18" y="6" width="1" height="1"/><rect x="20" y="6" width="1" height="1"/><rect x="22" y="6" width="1" height="1"/><rect x="24" y="6" width="1" height="1"/><rect x="26" y="6" width="1" height="1"/><rect x="28" y="6" width="1" height="1"/><rect x="30" y="6" width="1" height="1"/><rect x="32" y="6" width="1" height="1"/><rect x="34" y="6" width="1" height="1"/><rect x="36" y="6" width="1" height="1"/><rect x="38" y="6" width="1" height="1"/><rect x="40" y="6" width="1" height="1"/><rect x="42" y="6" width="1" height="1"/><rect x="44" y="6" width="1" height="1"/><rect x="46" y="6" width="1" height="1"/><rect x="48" y="6" width="1" height="1"/><rect x="8" y="7" width="3" height="1"/><rect x="14" y="7" width="1" height="1"/><rect x="16" y="7" width="5" height="1"/><rect x="22" y="7" width="2" height="1"/><rect x="25" y="7" width="2" height="1"/><rect x="30" y="7" width="1" height="1"/><rect x="35" y="7" width="2" height="1"/><rect x="40" y="7" width="8" height="1"/><rect x="0" y="8" width="1" height="1"/><rect x="2" y="8" width="2" height="1"/><rect x="5" y="8" width="3" height="1"/><rect x="9" y="8" width="1" height="1"/><rect x="11" y="8" width="2" height="1"/><rect x="14" y="8" width="1" height="1"/><rect x="20" y="8" width="2" height="1"/><rect x="23" y="8" width="8" height="1"/><rect x="33" y="8" width="1" height="1"/><rect x="35" y="8" width="1" height="1"/><rect x="39" y="8" width="3" height="1"/><rect x="45" y="8" width="1" height="1"/><rect x="48" y="8" width="1" height="1"/><rect x="50" y="8" width="1" height="1"/><rect x="53" y="8" width="1" height="1"/><rect x="55" y="8" width="2" height="1"/><rect x="0" y="9" width="1" height="1"/><rect x="2" y="9" width="4" height="1"/><rect x="8" y="9" width="3" height="1"/><rect x="13" y="9" width="3" height="1"/><rect x="18" y="9" width="1" height="1"/><rect x="20" y="9" width="2" height="1"/><rect x="24" y="9" width="1" height="1"/><rect x="29" y="9" width="4" height="1"/><rect x="35" y="9" width="1" height="1"/><rect x="39" y="9" width="1" height="1"/><rect x="41" y="9" width="2" height="1"/><rect x="45" y="9" width="1" height="1"/><rect x="47" y="9" width="3" height="1"/><rect x="51" y="9" width="2" height="1"/><rect x="54" y="9" width="3" height="1"/><rect x="1" y="10" width="3" height="1"/><rect x="5" y="10" width="4" height="1"/><rect x="10" y="10" width="2" height="1"/><rect x="14" y="10" width="2" height="1"/><rect x="19" y="10" width="1" height="1"/><rect x="23" y="10" width="2" height="1"/><rect x="28" y="10" width="4" height="1"/><rect x="33" y="10" width="2" height="1"/><rect x="36" y="10" width="2" height="1"/><rect x="39" y="10" width="4" height="1"/><rect x="46" y="10" width="3" height="1"/><rect x="50" y="10" width="1" height="1"/><rect x="53" y="10" width="2" height="1"/><rect x="56" y="10" width="1" height="1"/><rect x="3" y="11" width="1" height="1"/><rect x="5" y="11" width="1" height="1"/><rect x="9" y="11" width="3" height="1"/><rect x="14" y="11" width="1" height="1"/><rect x="16" y="11" width="1" height="1"/><rect x="18" y="11" width="5" height="1"/><rect x="25" y="11" width="1" height="1"/><rect x="27" y="11" width="1" height="1"/><rect x="32" y="11" width="2" height="1"/><rect x="35" y="11" width="3" height="1"/><rect x="39" y="11" width="1" height="1"/><rect x="41" y="11" width="6" height="1"/><rect x="53" y="11" width="1" height="1"/><rect x="0" y="12" width="2" height="1"/><rect x="3" y="12" width="1" height="1"/><rect x="5" y="12" width="3" height="1"/><rect x="10" y="12" width="2" height="1"/><rect x="13" y="12" width="1" height="1"/><rect x="15" y="12" width="7" height="1"/><rect x="23" y="12" width="2" height="1"/><rect x="26" y="12" width="2" height="1"/><rect x="33" y="12" width="5" height="1"/><rect x="39" y="12" width="1" height="1"/><rect x="41" y="12" width="1" height="1"/><rect x="43" y="12" width="1" height="1"/><rect x="45" y="12" width="2" height="1"/><rect x="49" y="12" width="1" height="1"/><rect x="55" y="12" width="1" height="1"/><rect x="0" y="13" width="1" height="1"/><rect x="3" y="13" width="1" height="1"/><rect x="5" y="13" width="1" height="1"/><rect x="8" y="13" width="3" height="1"/><rect x="13" y="13" width="3" height="1"/><rect x="17" y="13" width="1" height="1"/><rect x="20" y="13" width="2" height="1"/><rect x="23" y="13" width="1" height="1"/><rect x="25" y="13" width="2" height="1"/><rect x="29" y="13" width="1" height="1"/><rect x="31" y="13" width="2" height="1"/><rect x="35" y="13" width="1" height="1"/><rect x="37" y="13" width="3" height="1"/><rect x="44" y="13" width="2" height="1"/><rect x="49" y="13" width="2" height="1"/><rect x="52" y="13" width="1" height="1"/><rect x="55" y="13" width="1" height="1"/><rect x="0" y="14" width="9" height="1"/><rect x="12" y="14" width="3" height="1"/><rect x="16" y="14" width="2" height="1"/><rect x="19" y="14" width="1" height="1"/><rect x="21" y="14" width="1" height="1"/><rect x="23" y="14" width="1" height="1"/><rect x="25" y="14" width="1" height="1"/><rect x="27" y="14" width="4" height="1"/><rect x="33" y="14" width="1" height="1"/><rect x="38" y="14" width="2" height="1"/><rect x="41" y="14" width="2" height="1"/><rect x="47" y="14" width="2" height="1"/><rect x="51" y="14" width="3" height="1"/><rect x="0" y="15" width="1" height="1"/><rect x="2" y="15" width="2" height="1"/><rect x="5" y="15" width="1" height="1"/><rect x="7" y="15" width="2" height="1"/><rect x="10" y="15" width="1" height="1"/><rect x="12" y="15" width="1" height="1"/><rect x="14" y="15" width="1" height="1"/><rect x="16" y="15" width="1" height="1"/><rect x="24" y="15" width="1" height="1"/><rect x="28" y="15" width="3" height="1"/><rect x="32" y="15" width="1" height="1"/><rect x="35" y="15" width="1" height="1"/><rect x="37" y="15" width="1" height="1"/><rect x="40" y="15" width="2" height="1"/><rect x="43" y="15" width="2" height="1"/><rect x="46" y="15" width="2" height="1"/><rect x="51" y="15" width="2" height="1"/><rect x="54" y="15" width="3" height="1"/><rect x="0" y="16" width="2" height="1"/><rect x="4" y="16" width="1" height="1"/><rect x="6" y="16" width="5" height="1"/><rect x="13" y="16" width="3" height="1"/><rect x="17" y="16" width="1" height="1"/><rect x="20" y="16" width="1" height="1"/><rect x="26" y="16" width="1" height="1"/><rect x="29" y="16" width="1" height="1"/><rect x="31" y="16" width="2" height="1"/><rect x="34" y="16" width="2" height="1"/><rect x="37" y="16" width="3" height="1"/><rect x="42" y="16" width="1" height="1"/><rect x="44" y="16" width="1" height="1"/><rect x="47" y="16" width="3" height="1"/><rect x="51" y="16" width="1" height="1"/><rect x="54" y="16" width="2" height="1"/><rect x="3" y="17" width="2" height="1"/><rect x="8" y="17" width="2" height="1"/><rect x="11" y="17" width="1" height="1"/><rect x="13" y="17" width="1" height="1"/><rect x="15" y="17" width="2" height="1"/><rect x="18" y="17" width="4" height="1"/><rect x="23" y="17" width="1" height="1"/><rect x="29" y="17" width="1" height="1"/><rect x="32" y="17" width="3" height="1"/><rect x="36" y="17" width="2" height="1"/><rect x="39" y="17" width="1" height="1"/><rect x="41" y="17" width="1" height="1"/><rect x="45" y="17" width="3" height="1"/><rect x="51" y="17" width="1" height="1"/><rect x="53" y="17" width="1" height="1"/><rect x="56" y="17" width="1" height="1"/><rect x="2" y="18" width="1" height="1"/><rect x="4" y="18" width="3" height="1"/><rect x="10" y="18" width="1" height="1"/><rect x="14" y="18" width="3" height="1"/><rect x="19" y="18" width="4" height="1"/><rect x="27" y="18" width="1" height="1"/><rect x="34" y="18" width="1" height="1"/><rect x="36" y="18" width="3" height="1"/><rect x="40" y="18" width="1" height="1"/><rect x="43" y="18" width="1" height="1"/><rect x="45" y="18" width="4" height="1"/><rect x="50" y="18" width="2" height="1"/><rect x="54" y="18" width="2" height="1"/><rect x="1" y="19" width="1" height="1"/><rect x="7" y="19" width="1" height="1"/><rect x="11" y="19" width="6" height="1"/><rect x="19" y="19" width="2" height="1"/><rect x="26" y="19" width="1" height="1"/><rect x="29" y="19" width="1" height="1"/><rect x="33" y="19" width="1" height="1"/><rect x="38" y="19" width="4" height="1"/><rect x="43" y="19" width="1" height="1"/><rect x="45" y="19" width="2" height="1"/><rect x="50" y="19" width="1" height="1"/><rect x="52" y="19" width="1" height="1"/><rect x="56" y="19" width="1" height="1"/><rect x="1" y="20" width="1" height="1"/><rect x="3" y="20" width="1" height="1"/><rect x="6" y="20" width="5" height="1"/><rect x="12" y="20" width="1" height="1"/><rect x="14" y="20" width="2" height="1"/><rect x="18" y="20" width="1" height="1"/><rect x="20" y="20" width="3" height="1"/><rect x="24" y="20" width="1" height="1"/><rect x="26" y="20" width="4" height="1"/><rect x="35" y="20" width="1" height="1"/><rect x="40" y="20" width="3" height="1"/><rect x="46" y="20" width="1" height="1"/><rect x="48" y="20" width="7" height="1"/><rect x="0" y="21" width="1" height="1"/><rect x="3" y="21" width="1" height="1"/><rect x="5" y="21" width="1" height="1"/><rect x="8" y="21" width="2" height="1"/><rect x="11" y="21" width="1" height="1"/><rect x="16" y="21" width="2" height="1"/><rect x="19" y="21" width="6" height="1"/><rect x="26" y="21" width="1" height="1"/><rect x="28" y="21" width="1" height="1"/><rect x="30" y="21" width="1" height="1"/><rect x="32" y="21" width="1" height="1"/><rect x="36" y="21" width="1" height="1"/><rect x="41" y="21" width="2" height="1"/><rect x="44" y="21" width="1" height="1"/><rect x="48" y="21" width="2" height="1"/><rect x="52" y="21" width="1" height="1"/><rect x="54" y="21" width="1" height="1"/><rect x="56" y="21" width="1" height="1"/><rect x="0" y="22" width="1" height="1"/><rect x="3" y="22" width="4" height="1"/><rect x="8" y="22" width="2" height="1"/><rect x="11" y="22" width="2" height="1"/><rect x="16" y="22" width="1" height="1"/><rect x="20" y="22" width="2" height="1"/><rect x="24" y="22" width="3" height="1"/><rect x="30" y="22" width="7" height="1"/><rect x="39" y="22" width="1" height="1"/><rect x="41" y="22" width="4" height="1"/><rect x="46" y="22" width="3" height="1"/><rect x="51" y="22" width="2" height="1"/><rect x="54" y="22" width="1" height="1"/><rect x="56" y="22" width="1" height="1"/><rect x="0" y="23" width="6" height="1"/><rect x="7" y="23" width="4" height="1"/><rect x="14" y="23" width="2" height="1"/><rect x="17" y="23" width="4" height="1"/><rect x="27" y="23" width="1" height="1"/><rect x="31" y="23" width="2" height="1"/><rect x="34" y="23" width="3" height="1"/><rect x="39" y="23" width="1" height="1"/><rect x="44" y="23" width="3" height="1"/><rect x="48" y="23" width="2" height="1"/><rect x="53" y="23" width="1" height="1"/><rect x="55" y="23" width="2" height="1"/><rect x="0" y="24" width="1" height="1"/><rect x="5" y="24" width="2" height="1"/><rect x="10" y="24" width="4" height="1"/><rect x="16" y="24" width="1" height="1"/><rect x="20" y="24" width="1" height="1"/><rect x="25" y="24" width="2" height="1"/><rect x="30" y="24" width="2" height="1"/><rect x="36" y="24" width="2" height="1"/><rect x="39" y="24" width="1" height="1"/><rect x="43" y="24" width="1" height="1"/><rect x="45" y="24" width="3" height="1"/><rect x="50" y="24" width="1" height="1"/><rect x="53" y="24" width="1" height="1"/><rect x="55" y="24" width="2" height="1"/><rect x="0" y="25" width="1" height="1"/><rect x="2" y="25" width="3" height="1"/><rect x="7" y="25" width="2" height="1"/><rect x="11" y="25" width="1" height="1"/><rect x="13" y="25" width="3" height="1"/><rect x="17" y="25" width="3" height="1"/><rect x="21" y="25" width="1" height="1"/><rect x="25" y="25" width="4" height="1"/><rect x="32" y="25" width="2" height="1"/><rect x="35" y="25" width="1" height="1"/><rect x="37" y="25" width="2" height="1"/><rect x="40" y="25" width="2" height="1"/><rect x="43" y="25" width="1" height="1"/><rect x="45" y="25" width="1" height="1"/><rect x="47" y="25" width="1" height="1"/><rect x="49" y="25" width="2" height="1"/><rect x="55" y="25" width="1" height="1"/><rect x="0" y="26" width="3" height="1"/><rect x="4" y="26" width="6" height="1"/><rect x="11" y="26" width="1" height="1"/><rect x="13" y="26" width="2" height="1"/><rect x="16" y="26" width="1" height="1"/><rect x="19" y="26" width="1" height="1"/><rect x="21" y="26" width="1" height="1"/><rect x="23" y="26" width="1" height="1"/><rect x="25" y="26" width="6" height="1"/><rect x="33" y="26" width="1" height="1"/><rect x="38" y="26" width="1" height="1"/><rect x="40" y="26" width="1" height="1"/><rect x="42" y="26" width="2" height="1"/><rect x="45" y="26" width="1" height="1"/><rect x="47" y="26" width="7" height="1"/><rect x="1" y="27" width="2" height="1"/><rect x="4" y="27" width="1" height="1"/><rect x="8" y="27" width="3" height="1"/><rect x="12" y="27" width="2" height="1"/><rect x="17" y="27" width="1" height="1"/><rect x="21" y="27" width="1" height="1"/><rect x="23" y="27" width="1" height="1"/><rect x="25" y="27" width="2" height="1"/><rect x="30" y="27" width="1" height="1"/><rect x="32" y="27" width="1" height="1"/><rect x="38" y="27" width="4" height="1"/><rect x="44" y="27" width="1" height="1"/><rect x="46" y="27" width="1" height="1"/><rect x="48" y="27" width="1" height="1"/><rect x="52" y="27" width="1" height="1"/><rect x="54" y="27" width="1" height="1"/><rect x="56" y="27" width="1" height="1"/><rect x="2" y="28" width="3" height="1"/><rect x="6" y="28" width="1" height="1"/><rect x="8" y="28" width="1" height="1"/><rect x="10" y="28" width="1" height="1"/><rect x="12" y="28" width="1" height="1"/><rect x="14" y="28" width="1" height="1"/><rect x="17" y="28" width="1" height="1"/><rect x="19" y="28" width="1" height="1"/><rect x="21" y="28" width="1" height="1"/><rect x="24" y="28" width="1" height="1"/><rect x="26" y="28" width="1" height="1"/><rect x="28" y="28" width="1" height="1"/><rect x="30" y="28" width="4" height="1"/><rect x="37" y="28" width="3" height="1"/><rect x="42" y="28" width="5" height="1"/><rect x="48" y="28" width="1" height="1"/><rect x="50" y="28" width="1" height="1"/><rect x="52" y="28" width="1" height="1"/><rect x="54" y="28" width="1" height="1"/><rect x="56" y="28" width="1" height="1"/><rect x="1" y="29" width="2" height="1"/><rect x="4" y="29" width="1" height="1"/><rect x="8" y="29" width="1" height="1"/><rect x="12" y="29" width="1" height="1"/><rect x="14" y="29" width="3" height="1"/><rect x="25" y="29" width="2" height="1"/><rect x="30" y="29" width="1" height="1"/><rect x="32" y="29" width="4" height="1"/><rect x="37" y="29" width="1" height="1"/><rect x="41" y="29" width="1" height="1"/><rect x="44" y="29" width="5" height="1"/><rect x="52" y="29" width="2" height="1"/><rect x="55" y="29" width="2" height="1"/><rect x="0" y="30" width="1" height="1"/><rect x="3" y="30" width="6" height="1"/><rect x="12" y="30" width="1" height="1"/><rect x="14" y="30" width="2" height="1"/><rect x="17" y="30" width="1" height="1"/><rect x="19" y="30" width="1" height="1"/><rect x="24" y="30" width="7" height="1"/><rect x="33" y="30" width="2" height="1"/><rect x="37" y="30" width="3" height="1"/><rect x="45" y="30" width="11" height="1"/><rect x="1" y="31" width="1" height="1"/><rect x="8" y="31" width="2" height="1"/><rect x="12" y="31" width="7" height="1"/><rect x="20" y="31" width="1" height="1"/><rect x="22" y="31" width="1" height="1"/><rect x="27" y="31" width="2" height="1"/><rect x="30" y="31" width="1" height="1"/><rect x="33" y="31" width="2" height="1"/><rect x="36" y="31" width="5" height="1"/><rect x="43" y="31" width="1" height="1"/><rect x="55" y="31" width="2" height="1"/><rect x="2" y="32" width="1" height="1"/><rect x="4" y="32" width="1" height="1"/><rect x="6" y="32" width="3" height="1"/><rect x="10" y="32" width="2" height="1"/><rect x="13" y="32" width="1" height="1"/><rect x="15" y="32" width="2" height="1"/><rect x="20" y="32" width="1" height="1"/><rect x="25" y="32" width="2" height="1"/><rect x="29" y="32" width="3" height="1"/><rect x="33" y="32" width="3" height="1"/><rect x="40" y="32" width="1" height="1"/><rect x="45" y="32" width="2" height="1"/><rect x="49" y="32" width="1" height="1"/><rect x="51" y="32" width="1" height="1"/><rect x="54" y="32" width="1" height="1"/><rect x="0" y="33" width="2" height="1"/><rect x="3" y="33" width="3" height="1"/><rect x="7" y="33" width="1" height="1"/><rect x="9" y="33" width="2" height="1"/><rect x="13" y="33" width="1" height="1"/><rect x="15" y="33" width="3" height="1"/><rect x="21" y="33" width="3" height="1"/><rect x="26" y="33" width="1" height="1"/><rect x="29" y="33" width="1" height="1"/><rect x="31" y="33" width="1" height="1"/><rect x="36" y="33" width="2" height="1"/><rect x="41" y="33" width="3" height="1"/><rect x="45" y="33" width="1" height="1"/><rect x="47" y="33" width="5" height="1"/><rect x="54" y="33" width="1" height="1"/><rect x="0" y="34" width="1" height="1"/><rect x="2" y="34" width="1" height="1"/><rect x="6" y="34" width="2" height="1"/><rect x="13" y="34" width="3" height="1"/><rect x="17" y="34" width="3" height="1"/><rect x="21" y="34" width="1" height="1"/><rect x="23" y="34" width="6" height="1"/><rect x="31" y="34" width="1" height="1"/><rect x="33" y="34" width="2" height="1"/><rect x="39" y="34" width="1" height="1"/><rect x="42" y="34" width="1" height="1"/><rect x="44" y="34" width="5" height="1"/><rect x="50" y="34" width="2" height="1"/><rect x="53" y="34" width="3" height="1"/><rect x="1" y="35" width="2" height="1"/><rect x="5" y="35" width="1" height="1"/><rect x="15" y="35" width="1" height="1"/><rect x="19" y="35" width="6" height="1"/><rect x="26" y="35" width="2" height="1"/><rect x="30" y="35" width="1" height="1"/><rect x="32" y="35" width="6" height="1"/><rect x="39" y="35" width="1" height="1"/><rect x="43" y="35" width="3" height="1"/><rect x="48" y="35" width="5" height="1"/><rect x="55" y="35" width="1" height="1"/><rect x="4" y="36" width="1" height="1"/><rect x="6" y="36" width="1" height="1"/><rect x="8" y="36" width="1" height="1"/><rect x="10" y="36" width="1" height="1"/><rect x="12" y="36" width="1" height="1"/><rect x="16" y="36" width="2" height="1"/><rect x="19" y="36" width="4" height="1"/><rect x="25" y="36" width="2" height="1"/><rect x="28" y="36" width="1" height="1"/><rect x="30" y="36" width="2" height="1"/><rect x="33" y="36" width="2" height="1"/><rect x="36" y="36" width="4" height="1"/><rect x="41" y="36" width="2" height="1"/><rect x="46" y="36" width="1" height="1"/><rect x="48" y="36" width="6" height="1"/><rect x="0" y="37" width="4" height="1"/><rect x="7" y="37" width="1" height="1"/><rect x="9" y="37" width="1" height="1"/><rect x="12" y="37" width="1" height="1"/><rect x="15" y="37" width="3" height="1"/><rect x="19" y="37" width="3" height="1"/><rect x="23" y="37" width="1" height="1"/><rect x="25" y="37" width="2" height="1"/><rect x="29" y="37" width="2" height="1"/><rect x="33" y="37" width="1" height="1"/><rect x="37" y="37" width="2" height="1"/><rect x="43" y="37" width="3" height="1"/><rect x="47" y="37" width="1" height="1"/><rect x="49" y="37" width="1" height="1"/><rect x="53" y="37" width="3" height="1"/><rect x="2" y="38" width="3" height="1"/><rect x="6" y="38" width="1" height="1"/><rect x="8" y="38" width="2" height="1"/><rect x="11" y="38" width="2" height="1"/><rect x="14" y="38" width="2" height="1"/><rect x="17" y="38" width="6" height="1"/><rect x="25" y="38" width="3" height="1"/><rect x="31" y="38" width="1" height="1"/><rect x="35" y="38" width="1" height="1"/><rect x="37" y="38" width="1" height="1"/><rect x="40" y="38" width="3" height="1"/><rect x="44" y="38" width="1" height="1"/><rect x="48" y="38" width="1" height="1"/><rect x="52" y="38" width="2" height="1"/><rect x="1" y="39" width="1" height="1"/><rect x="5" y="39" width="1" height="1"/><rect x="7" y="39" width="1" height="1"/><rect x="9" y="39" width="1" height="1"/><rect x="11" y="39" width="1" height="1"/><rect x="13" y="39" width="1" height="1"/><rect x="17" y="39" width="1" height="1"/><rect x="20" y="39" width="2" height="1"/><rect x="23" y="39" width="3" height="1"/><rect x="27" y="39" width="1" height="1"/><rect x="32" y="39" width="2" height="1"/><rect x="37" y="39" width="1" height="1"/><rect x="39" y="39" width="4" height="1"/><rect x="44" y="39" width="1" height="1"/><rect x="46" y="39" width="4" height="1"/><rect x="53" y="39" width="4" height="1"/><rect x="1" y="40" width="1" height="1"/><rect x="3" y="40" width="1" height="1"/><rect x="5" y="40" width="2" height="1"/><rect x="9" y="40" width="6" height="1"/><rect x="17" y="40" width="2" height="1"/><rect x="20" y="40" width="2" height="1"/><rect x="24" y="40" width="1" height="1"/><rect x="27" y="40" width="2" height="1"/><rect x="32" y="40" width="1" height="1"/><rect x="34" y="40" width="1" height="1"/><rect x="39" y="40" width="1" height="1"/><rect x="44" y="40" width="4" height="1"/><rect x="50" y="40" width="3" height="1"/><rect x="54" y="40" width="2" height="1"/><rect x="2" y="41" width="4" height="1"/><rect x="8" y="41" width="1" height="1"/><rect x="11" y="41" width="1" height="1"/><rect x="14" y="41" width="3" height="1"/><rect x="20" y="41" width="1" height="1"/><rect x="22" y="41" width="2" height="1"/><rect x="25" y="41" width="2" height="1"/><rect x="28" y="41" width="2" height="1"/><rect x="31" y="41" width="6" height="1"/><rect x="40" y="41" width="2" height="1"/><rect x="43" y="41" width="4" height="1"/><rect x="48" y="41" width="1" height="1"/><rect x="52" y="41" width="1" height="1"/><rect x="55" y="41" width="2" height="1"/><rect x="0" y="42" width="1" height="1"/><rect x="2" y="42" width="3" height="1"/><rect x="6" y="42" width="3" height="1"/><rect x="10" y="42" width="2" height="1"/><rect x="13" y="42" width="1" height="1"/><rect x="16" y="42" width="4" height="1"/><rect x="21" y="42" width="1" height="1"/><rect x="25" y="42" width="2" height="1"/><rect x="30" y="42" width="1" height="1"/><rect x="33" y="42" width="2" height="1"/><rect x="36" y="42" width="1" height="1"/><rect x="38" y="42" width="2" height="1"/><rect x="45" y="42" width="2" height="1"/><rect x="49" y="42" width="1" height="1"/><rect x="53" y="42" width="1" height="1"/><rect x="55" y="42" width="1" height="1"/><rect x="3" y="43" width="1" height="1"/><rect x="7" y="43" width="4" height="1"/><rect x="12" y="43" width="2" height="1"/><rect x="21" y="43" width="3" height="1"/><rect x="27" y="43" width="1" height="1"/><rect x="29" y="43" width="2" height="1"/><rect x="36" y="43" width="1" height="1"/><rect x="38" y="43" width="3" height="1"/><rect x="45" y="43" width="1" height="1"/><rect x="51" y="43" width="1" height="1"/><rect x="55" y="43" width="2" height="1"/><rect x="1" y="44" width="1" height="1"/><rect x="3" y="44" width="2" height="1"/><rect x="6" y="44" width="1" height="1"/><rect x="9" y="44" width="1" height="1"/><rect x="12" y="44" width="6" height="1"/><rect x="19" y="44" width="1" height="1"/><rect x="21" y="44" width="1" height="1"/><rect x="23" y="44" width="3" height="1"/><rect x="27" y="44" width="1" height="1"/><rect x="30" y="44" width="1" height="1"/><rect x="37" y="44" width="2" height="1"/><rect x="40" y="44" width="2" height="1"/><rect x="46" y="44" width="1" height="1"/><rect x="54" y="44" width="2" height="1"/><rect x="1" y="45" width="1" height="1"/><rect x="5" y="45" width="1" height="1"/><rect x="8" y="45" width="3" height="1"/><rect x="12" y="45" width="1" height="1"/><rect x="15" y="45" width="1" height="1"/><rect x="19" y="45" width="4" height="1"/><rect x="24" y="45" width="1" height="1"/><rect x="27" y="45" width="1" height="1"/><rect x="29" y="45" width="3" height="1"/><rect x="36" y="45" width="2" height="1"/><rect x="42" y="45" width="2" height="1"/><rect x="53" y="45" width="4" height="1"/><rect x="0" y="46" width="1" height="1"/><rect x="2" y="46" width="1" height="1"/><rect x="5" y="46" width="3" height="1"/><rect x="9" y="46" width="1" height="1"/><rect x="15" y="46" width="1" height="1"/><rect x="17" y="46" width="1" height="1"/><rect x="21" y="46" width="2" height="1"/><rect x="25" y="46" width="1" height="1"/><rect x="27" y="46" width="1" height="1"/><rect x="31" y="46" width="1" height="1"/><rect x="33" y="46" width="1" height="1"/><rect x="35" y="46" width="1" height="1"/><rect x="37" y="46" width="1" height="1"/><rect x="39" y="46" width="1" height="1"/><rect x="42" y="46" width="1" height="1"/><rect x="46" y="46" width="1" height="1"/><rect x="48" y="46" width="3" height="1"/><rect x="53" y="46" width="1" height="1"/><rect x="55" y="46" width="2" height="1"/><rect x="0" y="47" width="5" height="1"/><rect x="7" y="47" width="1" height="1"/><rect x="9" y="47" width="2" height="1"/><rect x="13" y="47" width="3" height="1"/><rect x="18" y="47" width="2" height="1"/><rect x="21" y="47" width="1" height="1"/><rect x="23" y="47" width="1" height="1"/><rect x="25" y="47" width="1" height="1"/><rect x="27" y="47" width="2" height="1"/><rect x="30" y="47" width="4" height="1"/><rect x="36" y="47" width="2" height="1"/><rect x="39" y="47" width="1" height="1"/><rect x="41" y="47" width="5" height="1"/><rect x="47" y="47" width="1" height="1"/><rect x="49" y="47" width="3" height="1"/><rect x="6" y="48" width="1" height="1"/><rect x="9" y="48" width="1" height="1"/><rect x="11" y="48" width="3" height="1"/><rect x="15" y="48" width="2" height="1"/><rect x="21" y="48" width="1" height="1"/><rect x="23" y="48" width="1" height="1"/><rect x="26" y="48" width="6" height="1"/><rect x="35" y="48" width="2" height="1"/><rect x="39" y="48" width="1" height="1"/><rect x="43" y="48" width="1" height="1"/><rect x="48" y="48" width="6" height="1"/><rect x="55" y="48" width="1" height="1"/><rect x="8" y="49" width="1" height="1"/><rect x="12" y="49" width="1" height="1"/><rect x="16" y="49" width="1" height="1"/><rect x="18" y="49" width="4" height="1"/><rect x="25" y="49" width="2" height="1"/><rect x="30" y="49" width="2" height="1"/><rect x="36" y="49" width="1" height="1"/><rect x="38" y="49" width="1" height="1"/><rect x="40" y="49" width="2" height="1"/><rect x="43" y="49" width="3" height="1"/><rect x="48" y="49" width="1" height="1"/><rect x="52" y="49" width="1" height="1"/><rect x="54" y="49" width="1" height="1"/><rect x="8" y="50" width="3" height="1"/><rect x="14" y="50" width="1" height="1"/><rect x="16" y="50" width="1" height="1"/><rect x="19" y="50" width="3" height="1"/><rect x="25" y="50" width="2" height="1"/><rect x="28" y="50" width="1" height="1"/><rect x="30" y="50" width="1" height="1"/><rect x="32" y="50" width="2" height="1"/><rect x="38" y="50" width="1" height="1"/><rect x="40" y="50" width="1" height="1"/><rect x="42" y="50" width="1" height="1"/><rect x="47" y="50" width="2" height="1"/><rect x="50" y="50" width="1" height="1"/><rect x="52" y="50" width="1" height="1"/><rect x="54" y="50" width="1" height="1"/><rect x="8" y="51" width="2" height="1"/><rect x="13" y="51" width="6" height="1"/><rect x="20" y="51" width="1" height="1"/><rect x="22" y="51" width="3" height="1"/><rect x="26" y="51" width="1" height="1"/><rect x="30" y="51" width="1" height="1"/><rect x="32" y="51" width="1" height="1"/><rect x="37" y="51" width="4" height="1"/><rect x="44" y="51" width="2" height="1"/><rect x="47" y="51" width="2" height="1"/><rect x="52" y="51" width="3" height="1"/><rect x="56" y="51" width="1" height="1"/><rect x="9" y="52" width="1" height="1"/><rect x="12" y="52" width="2" height="1"/><rect x="16" y="52" width="2" height="1"/><rect x="21" y="52" width="2" height="1"/><rect x="26" y="52" width="7" height="1"/><rect x="34" y="52" width="1" height="1"/><rect x="39" y="52" width="1" height="1"/><rect x="43" y="52" width="3" height="1"/><rect x="48" y="52" width="5" height="1"/><rect x="54" y="52" width="1" height="1"/><rect x="56" y="52" width="1" height="1"/><rect x="8" y="53" width="1" height="1"/><rect x="11" y="53" width="1" height="1"/><rect x="13" y="53" width="2" height="1"/><rect x="16" y="53" width="2" height="1"/><rect x="19" y="53" width="1" height="1"/><rect x="26" y="53" width="3" height="1"/><rect x="32" y="53" width="1" height="1"/><rect x="34" y="53" width="1" height="1"/><rect x="36" y="53" width="1" height="1"/><rect x="41" y="53" width="1" height="1"/><rect x="44" y="53" width="5" height="1"/><rect x="51" y="53" width="1" height="1"/><rect x="55" y="53" width="1" height="1"/><rect x="8" y="54" width="2" height="1"/><rect x="12" y="54" width="3" height="1"/><rect x="16" y="54" width="3" height="1"/><rect x="20" y="54" width="6" height="1"/><rect x="30" y="54" width="3" height="1"/><rect x="34" y="54" width="1" height="1"/><rect x="36" y="54" width="1" height="1"/><rect x="38" y="54" width="1" height="1"/><rect x="40" y="54" width="2" height="1"/><rect x="45" y="54" width="2" height="1"/><rect x="48" y="54" width="1" height="1"/><rect x="9" y="55" width="1" height="1"/><rect x="12" y="55" width="1" height="1"/><rect x="14" y="55" width="3" height="1"/><rect x="20" y="55" width="1" height="1"/><rect x="23" y="55" width="1" height="1"/><rect x="25" y="55" width="1" height="1"/><rect x="28" y="55" width="1" height="1"/><rect x="31" y="55" width="1" height="1"/><rect x="33" y="55" width="1" height="1"/><rect x="35" y="55" width="2" height="1"/><rect x="38" y="55" width="4" height="1"/><rect x="43" y="55" width="1" height="1"/><rect x="45" y="55" width="1" height="1"/><rect x="49" y="55" width="2" height="1"/><rect x="53" y="55" width="1" height="1"/><rect x="56" y="55" width="1" height="1"/><rect x="8" y="56" width="4" height="1"/><rect x="15" y="56" width="6" height="1"/><rect x="27" y="56" width="1" height="1"/><rect x="29" y="56" width="1" height="1"/><rect x="33" y="56" width="2" height="1"/><rect x="39" y="56" width="2" height="1"/><rect x="43" y="56" width="1" height="1"/><rect x="45" y="56" width="1" height="1"/><rect x="47" y="56" width="1" height="1"/><rect x="50" y="56" width="1" height="1"/><rect x="52" y="56" width="1" height="1"/><rect x="54" y="56" width="1" height="1"/></svg>